<svg width="512" height="512" viewBox="0 0 512 512" fill="none" xmlns="http://www.w3.org/2000/svg">
<path d="M411.563 411.564C414.688 414.688 414.697 419.764 411.465 422.777C381.414 450.791 344.309 470.2 304.051 478.879C261.183 488.121 216.559 484.804 175.529 469.327C134.498 453.849 98.8015 426.867 72.7176 391.616C46.6338 356.364 31.2695 314.337 28.4663 270.574C25.6631 226.811 35.5401 183.168 56.9132 144.876C78.2863 106.585 110.249 75.2691 148.969 54.6832C187.69 34.0973 231.526 25.1146 275.222 28.8118C316.259 32.2838 355.537 46.8004 388.917 70.7512C392.507 73.3269 393.145 78.3633 390.445 81.8605L339.316 148.086C336.616 151.583 331.604 152.206 327.946 149.729C309.793 137.439 288.752 129.979 266.82 128.123C242.224 126.042 217.55 131.098 195.756 142.685C173.961 154.272 155.971 171.899 143.94 193.452C131.91 215.005 126.351 239.571 127.928 264.203C129.506 288.836 138.154 312.492 152.836 332.334C167.518 352.176 187.61 367.363 210.705 376.075C233.8 384.787 258.917 386.654 283.046 381.452C304.563 376.813 324.479 366.729 340.916 352.223C344.229 349.3 349.279 349.279 352.403 352.403L411.563 411.564Z" fill="#00557C"/>
<path d="M411.563 411.564C414.688 414.688 414.697 419.764 411.465 422.777C381.414 450.791 344.309 470.2 304.051 478.879C261.183 488.121 216.559 484.804 175.529 469.327C134.498 453.849 98.8015 426.867 72.7176 391.616C46.6338 356.364 31.2695 314.337 28.4663 270.574C25.6631 226.811 35.5401 183.168 56.9132 144.876C78.2863 106.585 110.249 75.2691 148.969 54.6832C187.69 34.0973 231.526 25.1146 275.222 28.8118C316.259 32.2838 355.537 46.8004 388.917 70.7512C392.507 73.3269 393.145 78.3633 390.445 81.8605L339.316 148.086C336.616 151.583 331.604 152.206 327.946 149.729C309.793 137.439 288.752 129.979 266.82 128.123C242.224 126.042 217.55 131.098 195.756 142.685C173.961 154.272 155.971 171.899 143.94 193.452C131.91 215.005 126.351 239.571 127.928 264.203C129.506 288.836 138.154 312.492 152.836 332.334C167.518 352.176 187.61 367.363 210.705 376.075C233.8 384.787 258.917 386.654 283.046 381.452C304.563 376.813 324.479 366.729 340.916 352.223C344.229 349.3 349.279 349.279 352.403 352.403L411.563 411.564Z" fill="url(#paint0_linear)"/>
<defs>
<linearGradient id="paint0_linear" x1="256" y1="28" x2="256" y2="484" gradientUnits="userSpaceOnUse">
<stop stop-color="#00AAE6"/>
<stop offset="1" stop-color="#00AAE6" stop-opacity="0"/>
</linearGradient>
</defs>
</svg>
